<?xml version="1.0" standalone="no"?>
<!DOCTYPE svg PUBLIC "-//W3C//DTD SVG 20010904//EN"
 "http://www.w3.org/TR/2001/REC-SVG-20010904/DTD/svg10.dtd">
<svg version="1.0" xmlns="http://www.w3.org/2000/svg"
 width="512.000000pt" height="512.000000pt" viewBox="0 0 512.000000 512.000000"
 preserveAspectRatio="xMidYMid meet">

<g transform="translate(0.000000,512.000000) scale(0.100000,-0.100000)"
fill="#181052" stroke="none">
<path d="M168 4440 c-63 -19 -118 -70 -149 -138 -19 -43 -19 -79 -19 -1425 0
-962 3 -1394 11 -1421 16 -58 101 -139 161 -154 34 -9 300 -12 999 -12 l952 0
-7 -48 c-3 -26 -11 -75 -17 -109 l-11 -63 -357 0 c-353 0 -356 0 -407 -24 -70
-33 -116 -90 -148 -186 -24 -73 -25 -83 -12 -113 7 -17 26 -43 41 -57 l27 -25
1329 0 1329 0 30 30 c48 48 52 80 23 168 -31 92 -78 151 -147 183 -47 22 -64
24 -218 24 -91 0 -174 -3 -183 -6 -26 -10 -46 -59 -36 -87 20 -51 43 -57 209
-57 125 0 157 -3 178 -16 24 -16 60 -72 51 -80 -5 -5 -2469 -5 -2474 0 -9 8
27 64 51 80 23 15 102 16 874 16 844 0 849 0 876 21 19 15 26 30 26 55 0 47
-29 74 -79 74 l-39 0 -11 63 c-6 34 -14 83 -17 110 l-7 47 952 0 c699 0 965 3
999 12 60 15 145 96 161 154 8 27 11 457 11 1415 0 1212 -2 1381 -15 1420 -19
53 -47 87 -105 125 l-44 29 -2380 2 c-1310 1 -2393 -2 -2408 -7z m4773 -169
l29 -29 0 -1372 0 -1372 -29 -29 -29 -29 -2352 0 -2352 0 -29 29 -29 29 0
1372 0 1372 29 29 29 29 2352 0 2352 0 29 -29z m-2096 -3003 c6 -27 35 -188
35 -194 0 -2 -144 -4 -321 -4 l-321 0 6 28 c3 15 10 59 16 97 7 39 13 76 15
83 3 9 69 12 284 12 l281 0 5 -22z"/>
<path d="M281 4174 l-31 -26 0 -1275 0 -1275 29 -29 29 -29 2252 0 2252 0 29
29 29 29 0 1272 0 1272 -29 29 -29 29 -2017 0 -2016 0 -24 -25 c-14 -13 -25
-31 -25 -40 0 -24 27 -72 45 -79 9 -3 901 -6 1981 -6 l1964 0 0 -1180 0 -1180
-2160 0 -2160 0 0 1180 0 1180 39 0 c80 0 122 78 68 128 -20 19 -35 22 -109
22 -78 0 -89 -2 -117 -26z"/>
<path d="M1225 3930 c-27 -4 -124 -30 -215 -58 -91 -27 -193 -57 -227 -67 -80
-22 -108 -51 -108 -112 0 -51 8 -60 157 -173 302 -229 309 -235 291 -241 -10
-4 -36 -12 -58 -19 -228 -72 -414 -271 -476 -507 -25 -97 -27 -251 -4 -338 53
-206 212 -356 450 -426 101 -30 318 -37 445 -15 110 19 297 79 343 110 45 30
50 84 11 115 -35 28 -43 27 -154 -15 -186 -70 -401 -92 -568 -58 -162 33 -292
125 -355 253 -28 57 -32 77 -35 166 -2 56 1 127 8 158 27 130 138 286 253 355
109 65 295 110 346 83 31 -17 26 -24 -29 -44 -97 -35 -198 -137 -242 -244 -19
-49 -23 -76 -23 -173 0 -108 2 -119 32 -182 99 -210 325 -307 533 -229 155 58
267 216 275 386 2 39 6 71 10 73 3 2 31 -2 62 -8 115 -24 228 13 333 107 102
92 123 155 77 224 -23 35 -36 40 -146 58 -70 11 -131 39 -174 79 -16 15 -123
158 -238 318 -115 160 -226 307 -248 327 -88 79 -208 115 -326 97z m175 -175
c25 -13 54 -34 66 -47 22 -24 277 -378 348 -483 97 -142 204 -227 321 -256 28
-6 52 -14 54 -15 6 -6 -50 -53 -82 -70 -15 -8 -50 -18 -76 -21 -67 -8 -113 15
-268 133 -631 483 -883 678 -880 681 4 3 313 94 362 106 35 9 108 -5 155 -28z
m161 -801 c112 -57 180 -185 165 -308 -4 -29 -13 -61 -20 -71 -11 -16 -16 -15
-59 13 -26 16 -64 33 -85 37 -50 9 -54 13 -41 37 13 23 -4 73 -28 82 -12 5
-11 10 5 34 38 52 48 119 26 176 -8 20 -1 20 37 0z m-187 -33 c35 -39 -16 -97
-63 -72 -23 13 -29 59 -9 79 18 18 53 14 72 -7z m-121 -205 c35 -17 69 -26 89
-24 28 3 33 -1 39 -26 5 -17 7 -30 6 -31 -1 0 -24 -6 -50 -13 -27 -7 -65 -24
-85 -37 -20 -14 -40 -25 -43 -25 -4 0 -12 14 -18 31 -12 36 -15 163 -3 157 4
-2 33 -16 65 -32z m293 -245 c23 -10 44 -23 48 -29 10 -16 -88 -52 -141 -51
-52 0 -134 27 -140 45 -2 6 15 21 39 33 55 27 137 28 194 2z"/>
<path d="M3768 3929 c-68 -10 -144 -46 -198 -95 -22 -20 -83 -96 -135 -169
-71 -99 -95 -140 -95 -163 0 -60 73 -94 118 -54 10 9 54 67 97 127 101 142
111 152 169 182 77 39 131 35 335 -25 96 -29 176 -53 178 -55 3 -3 -159 -128
-945 -730 -89 -69 -144 -91 -203 -84 -26 3 -61 13 -76 21 -32 17 -88 64 -82
70 2 1 26 8 53 15 74 18 144 58 206 117 76 73 97 112 81 152 -14 34 -52 55
-85 46 -12 -3 -45 -31 -73 -62 -58 -66 -117 -99 -205 -113 -109 -18 -122 -23
-145 -58 -46 -69 -25 -132 77 -224 105 -94 218 -131 333 -107 31 6 59 10 62 8
4 -2 8 -35 10 -74 15 -272 269 -466 525 -399 121 31 226 121 283 243 26 56 32
82 35 160 7 150 -37 262 -137 354 -52 47 -139 98 -168 98 -20 0 -15 18 8 31
51 27 237 -18 346 -83 115 -69 226 -225 253 -355 7 -31 10 -102 8 -157 -3 -87
-8 -110 -34 -166 -124 -263 -523 -347 -927 -195 -108 41 -116 42 -151 14 -39
-31 -34 -85 11 -115 46 -31 233 -91 343 -110 127 -22 344 -15 445 15 238 70
396 219 450 426 24 90 22 245 -5 341 -67 245 -254 439 -497 513 l-52 16 110
85 c61 47 150 114 197 150 149 114 157 122 157 174 0 69 -25 87 -185 134 -361
108 -394 115 -492 101z m48 -1000 c80 -54 124 -140 124 -243 0 -61 -15 -126
-29 -126 -3 0 -23 12 -44 26 -21 14 -59 30 -86 37 l-48 11 4 41 c4 31 1 44
-15 58 l-21 19 26 46 c21 40 24 56 20 109 -5 70 -3 71 69 22z m-228 -1 c7 -7
12 -25 12 -40 0 -55 -78 -61 -95 -7 -13 41 52 78 83 47z m-84 -228 c25 -7 54
-10 65 -7 15 3 21 -2 26 -22 9 -36 10 -35 -41 -48 -25 -6 -64 -24 -86 -38 -39
-26 -42 -26 -54 -10 -17 22 -28 114 -19 154 l7 31 28 -23 c15 -13 48 -30 74
-37z m263 -231 c24 -12 42 -26 40 -33 -6 -18 -88 -45 -140 -45 -53 -1 -151 35
-141 51 4 6 25 19 48 29 56 25 138 25 193 -2z"/>
<path d="M2480 3133 c-15 -19 -20 -35 -15 -53 14 -61 17 -149 5 -184 -6 -20
-40 -68 -76 -106 -68 -75 -78 -105 -48 -148 11 -16 25 -22 53 -22 33 0 45 8
103 68 36 37 78 92 94 122 27 51 29 64 29 160 0 84 -4 112 -19 140 -23 43 -33
50 -73 50 -23 0 -38 -8 -53 -27z"/>
<path d="M2606 2409 c-32 -25 -34 -58 -6 -154 32 -111 27 -170 -20 -261 -22
-43 -40 -86 -40 -96 0 -27 45 -68 73 -68 39 0 72 34 113 117 33 68 39 89 42
163 4 72 0 102 -23 184 -37 130 -77 163 -139 115z"/>
</g>
</svg>
