<?xml version="1.0" standalone="no"?>
<!DOCTYPE svg PUBLIC "-//W3C//DTD SVG 20010904//EN"
 "http://www.w3.org/TR/2001/REC-SVG-20010904/DTD/svg10.dtd">
<svg version="1.0" xmlns="http://www.w3.org/2000/svg"
 width="512.000000pt" height="512.000000pt" viewBox="0 0 512.000000 512.000000"
 preserveAspectRatio="xMidYMid meet">

<g transform="translate(0.000000,512.000000) scale(0.100000,-0.100000)"
fill="#181052" stroke="none">
<path d="M505 4935 l-25 -24 0 -220 0 -220 -54 6 c-228 24 -356 -250 -191
-410 95 -92 234 -89 330 8 66 65 75 99 75 269 l0 136 240 0 240 0 0 -85 0 -85
-44 6 c-77 11 -143 -12 -201 -70 -100 -100 -100 -238 -2 -334 67 -66 151 -86
241 -60 55 16 138 99 154 154 9 30 12 163 12 473 l0 432 -25 24 -24 25 -351 0
-351 0 -24 -25z m615 -215 l0 -80 -240 0 -240 0 0 80 0 80 240 0 240 0 0 -80z
m-665 -425 c50 -49 15 -135 -55 -135 -41 0 -80 39 -80 80 0 41 39 80 80 80 19
0 40 -9 55 -25z m640 -160 c50 -49 15 -135 -55 -135 -41 0 -80 39 -80 80 0 41
39 80 80 80 19 0 40 -9 55 -25z"/>
<path d="M3954 4945 c-12 -8 -54 -67 -95 -132 -40 -65 -110 -175 -156 -245
l-82 -128 -28 26 c-61 58 -166 74 -251 39 -52 -21 -114 -90 -130 -143 -25 -83
-4 -181 51 -240 63 -67 190 -88 272 -45 60 32 92 72 205 251 56 89 106 162
110 162 5 0 87 -49 182 -110 95 -60 181 -110 190 -110 9 0 28 5 40 11 32 14
218 307 218 342 0 14 -10 37 -22 51 -33 36 -436 286 -462 286 -12 0 -31 -7
-42 -15z m259 -298 l78 -49 -17 -27 c-55 -84 -67 -101 -75 -101 -19 0 -254
159 -253 172 1 7 18 39 38 71 l37 57 57 -37 c31 -20 92 -59 135 -86z m-733
-297 c26 -26 34 -63 20 -89 -41 -77 -150 -54 -150 32 0 63 86 101 130 57z"/>
<path d="M1625 4855 c-50 -49 -15 -135 55 -135 41 0 80 39 80 80 0 41 -39 80
-80 80 -19 0 -40 -9 -55 -25z"/>
<path d="M2825 4775 c-25 -24 -25 -26 -25 -215 0 -189 0 -191 25 -215 15 -16
36 -25 55 -25 19 0 40 9 55 25 25 24 25 26 25 215 0 189 0 191 -25 215 -15 16
-36 25 -55 25 -19 0 -40 -9 -55 -25z"/>
<path d="M2328 4631 c-14 -16 -51 -70 -82 -120 -32 -50 -61 -91 -65 -91 -5 0
-16 10 -27 21 -50 57 -179 77 -259 40 -154 -70 -187 -270 -63 -388 93 -89 247
-85 334 8 36 38 287 432 298 466 8 26 -15 78 -39 87 -38 14 -73 6 -97 -23z
m-281 -313 c41 -38 28 -105 -26 -128 -82 -33 -145 84 -74 138 26 19 74 14 100
-10z"/>
<path d="M4625 4301 c-51 -23 -118 -98 -133 -149 -9 -28 -12 -194 -12 -576 l0
-536 -101 0 -100 0 25 33 c71 93 107 238 89 357 -49 317 -387 494 -678 356
-222 -105 -327 -359 -246 -591 12 -33 21 -60 21 -60 0 -1 -52 16 -115 38 -63
22 -115 44 -115 51 0 6 -16 145 -34 308 -31 270 -36 302 -60 343 -45 75 -126
124 -211 124 -92 1 -200 -83 -226 -177 -12 -42 -9 -86 30 -434 23 -213 47
-404 53 -425 6 -24 29 -56 61 -88 51 -49 59 -52 310 -139 l257 -89 0 -310 0
-310 -223 -226 c-192 -194 -226 -233 -240 -275 -15 -43 -17 -101 -17 -444 0
-276 4 -407 12 -434 16 -56 88 -133 143 -154 105 -39 230 4 290 100 l30 49 3
351 3 351 207 208 c185 185 210 207 239 207 l33 0 0 -696 c0 -505 3 -707 12
-736 15 -51 82 -126 133 -149 47 -22 111 -24 169 -7 55 16 138 99 154 154 9
31 12 284 12 1033 l0 992 -25 24 c-15 16 -36 25 -55 25 -19 0 -40 -9 -55 -25
l-25 -24 0 -991 0 -991 -25 -24 c-40 -40 -96 -30 -123 22 -9 16 -12 219 -12
763 l0 741 -25 24 c-23 24 -30 25 -137 25 -70 -1 -121 -5 -134 -13 -11 -7
-129 -123 -262 -258 l-242 -247 0 -356 0 -357 -25 -24 c-26 -27 -70 -32 -96
-12 -37 29 -39 47 -39 438 l0 383 240 241 240 241 0 387 0 386 -22 24 c-17 18
-100 51 -306 123 -207 71 -288 103 -297 118 -8 13 -30 174 -55 403 -40 360
-42 384 -26 408 31 46 98 43 130 -7 9 -15 27 -135 50 -348 33 -299 38 -326 59
-346 13 -12 118 -54 252 -99 127 -43 248 -89 271 -102 62 -35 137 -29 171 16
18 23 16 93 -3 119 -8 12 -32 31 -52 41 -55 28 -111 89 -141 151 -21 45 -26
69 -26 135 0 67 4 89 28 137 16 32 48 75 74 97 158 140 408 91 500 -97 24 -48
28 -70 28 -137 0 -66 -5 -90 -26 -135 -30 -62 -86 -123 -141 -151 -49 -25 -68
-55 -68 -107 0 -32 6 -49 25 -68 l25 -25 244 3 c269 3 269 3 320 72 20 27 21
42 26 594 3 312 7 568 8 569 54 52 89 57 128 18 l25 -25 -3 -577 -3 -578 -34
-63 c-38 -70 -70 -101 -145 -139 -46 -24 -66 -27 -194 -32 -136 -6 -145 -7
-163 -30 -26 -32 -24 -77 6 -106 23 -24 30 -25 147 -25 136 0 206 14 290 56
71 36 159 123 197 193 61 114 61 119 61 739 0 404 -3 576 -12 604 -15 51 -82
126 -133 149 -52 24 -138 24 -190 0z"/>
<path d="M2025 3735 c-50 -49 -15 -135 55 -135 41 0 80 39 80 80 0 41 -39 80
-80 80 -19 0 -40 -9 -55 -25z"/>
<path d="M2477 3665 c-70 -26 -129 -88 -147 -155 -5 -19 -23 -161 -40 -315
-17 -154 -32 -284 -33 -289 -3 -9 -218 -89 -224 -83 -1 2 6 29 17 60 63 179
15 375 -124 505 -105 98 -219 139 -360 129 -347 -22 -550 -384 -390 -699 13
-26 38 -63 55 -83 l31 -35 -25 -9 c-14 -6 -115 -81 -225 -169 l-199 -159 -184
28 c-101 16 -206 28 -232 29 -59 0 -112 -21 -155 -63 -94 -90 -106 -218 -29
-319 54 -71 91 -83 385 -128 144 -22 275 -40 290 -40 52 0 103 21 167 71 l65
50 0 -91 c0 -83 2 -93 25 -115 32 -33 78 -33 110 0 25 24 25 26 25 212 0 208
-5 226 -59 238 -38 8 -55 -1 -171 -95 -157 -127 -111 -118 -397 -76 -306 46
-288 42 -313 68 -27 30 -26 73 5 103 30 31 38 31 270 -5 105 -16 204 -30 221
-30 25 0 71 32 240 166 115 92 223 173 241 180 18 8 60 14 93 14 79 0 110 26
110 92 0 53 -19 82 -70 108 -54 28 -105 81 -137 143 -23 44 -27 65 -27 137 -1
100 23 159 89 225 65 66 125 90 225 90 100 0 160 -24 225 -90 65 -65 89 -125
89 -225 0 -73 -4 -92 -27 -137 -32 -62 -83 -116 -137 -143 -51 -26 -70 -55
-70 -108 0 -64 32 -92 103 -92 38 0 62 6 78 19 13 10 132 56 264 101 142 49
249 91 262 104 20 19 25 49 58 341 19 176 35 325 35 333 0 27 48 62 87 62 44
1 68 16 82 53 31 81 -64 131 -172 92z"/>
<path d="M425 3415 c-24 -23 -25 -28 -25 -175 0 -147 1 -152 25 -175 15 -16
36 -25 55 -25 19 0 40 9 55 25 24 23 25 28 25 175 0 147 -1 152 -25 175 -15
16 -36 25 -55 25 -19 0 -40 -9 -55 -25z"/>
<path d="M2596 2881 c-11 -12 -22 -52 -30 -109 -6 -50 -18 -97 -24 -105 -7 -8
-139 -58 -295 -112 -205 -71 -288 -104 -304 -122 l-23 -24 0 -387 0 -386 229
-231 c126 -126 234 -240 240 -252 7 -15 11 -143 11 -403 l0 -381 -25 -24 c-32
-33 -78 -33 -110 0 l-25 24 0 357 0 356 -242 247 c-133 135 -251 251 -263 258
-12 8 -63 12 -133 13 -107 0 -114 -1 -137 -25 l-25 -24 0 -345 c0 -189 -3
-352 -6 -361 -11 -27 -754 -518 -791 -523 -56 -7 -99 56 -77 113 4 9 161 120
350 246 189 125 348 237 354 248 6 13 10 130 10 321 l0 301 -25 24 c-32 33
-78 33 -110 0 l-25 -24 0 -270 0 -270 -307 -206 c-170 -114 -326 -226 -349
-250 -90 -96 -86 -224 11 -320 69 -70 151 -92 236 -64 57 19 787 508 828 556
21 23 43 59 49 81 8 26 12 137 12 336 l0 296 33 0 c29 0 55 -22 240 -208 l207
-207 0 -329 c0 -229 4 -341 12 -370 16 -55 99 -138 154 -154 94 -28 169 -8
240 63 75 75 75 75 72 545 -3 377 -4 408 -22 445 -12 23 -111 132 -238 261
l-218 220 0 310 0 310 258 89 c251 87 258 90 308 140 59 57 71 89 80 216 6 79
5 88 -15 108 -28 28 -91 29 -115 2z"/>
</g>
</svg>
