<?xml version="1.0" standalone="no"?>
<!DOCTYPE svg PUBLIC "-//W3C//DTD SVG 20010904//EN"
 "http://www.w3.org/TR/2001/REC-SVG-20010904/DTD/svg10.dtd">
<svg version="1.0" xmlns="http://www.w3.org/2000/svg"
 width="512.000000pt" height="512.000000pt" viewBox="0 0 512.000000 512.000000"
 preserveAspectRatio="xMidYMid meet">
<metadata>
Created by potrace 1.16, written by Peter Selinger 2001-2019
</metadata>
<g transform="translate(0.000000,512.000000) scale(0.100000,-0.100000)"
fill="#181052" stroke="none">
<path d="M4557 5010 c-21 -6 -50 -16 -65 -24 -15 -8 -133 -121 -262 -250
l-235 -236 -1402 0 -1402 0 -20 -26 c-26 -33 -27 -75 -2 -105 l19 -24 1323 -3
1324 -2 -220 -220 -220 -220 -1622 0 -1623 0 0 208 c0 114 4 212 8 219 6 9
103 13 386 15 l378 3 19 24 c25 30 24 72 -2 105 l-20 26 -395 0 c-374 0 -397
-1 -434 -20 -21 -11 -49 -34 -62 -52 l-23 -33 0 -1742 0 -1741 30 -43 c19 -27
50 -54 84 -71 l53 -28 359 0 359 0 0 -280 c0 -307 4 -330 56 -365 28 -20 58
-20 1614 -20 1556 0 1586 0 1614 20 52 35 56 58 56 365 l0 280 359 0 359 0 53
28 c34 17 65 44 84 71 l30 43 0 1741 0 1742 -23 33 c-42 59 -84 72 -228 72
l-127 0 55 58 c70 73 93 130 86 215 -3 34 -15 81 -26 103 -24 47 -81 100 -127
120 -44 18 -123 25 -168 14z m97 -164 c43 -18 66 -51 66 -96 0 -33 -44 -79
-806 -841 l-807 -807 -109 -43 c-59 -23 -110 -40 -112 -38 -2 2 15 53 39 113
l44 110 798 799 c439 439 807 802 818 807 28 12 31 12 69 -4z m310 -522 c3 -9
6 -108 6 -220 l0 -204 -417 0 -418 0 220 220 220 220 191 0 c166 0 193 -2 198
-16z m-1784 -639 l-54 -55 -1393 0 -1393 0 -38 -34 -37 -34 -3 -1212 c-2
-1107 -1 -1214 14 -1246 31 -65 47 -69 347 -72 l267 -3 0 -50 0 -49 -341 0
c-203 0 -348 4 -359 10 -10 5 -23 24 -29 41 -8 23 -11 426 -11 1395 l0 1364
1542 0 1542 0 -54 -55z m1790 -1309 c0 -969 -3 -1372 -11 -1395 -6 -17 -19
-36 -29 -41 -11 -6 -156 -10 -359 -10 l-341 0 0 49 0 50 268 3 c298 3 315 7
346 72 14 31 16 116 16 855 l0 822 -25 24 c-15 16 -36 25 -55 25 -19 0 -40 -9
-55 -25 l-25 -24 0 -270 0 -269 -52 14 c-29 8 -96 17 -148 21 -198 12 -392
-55 -533 -186 -41 -38 -50 -42 -61 -30 -7 8 -131 163 -275 346 -244 310 -264
333 -303 343 -33 9 -49 9 -82 -4 -34 -13 -61 -41 -156 -162 -63 -81 -160 -204
-215 -274 l-101 -127 -344 437 c-190 241 -357 445 -372 454 -35 21 -106 20
-140 -2 -15 -9 -210 -249 -433 -532 -223 -283 -409 -514 -413 -512 -180 69
-214 76 -357 76 -130 0 -201 -10 -280 -40 -13 -6 -15 70 -15 700 l0 706 1271
0 1272 0 -69 -73 c-69 -72 -70 -74 -147 -272 -42 -110 -77 -212 -77 -227 0
-14 12 -40 26 -57 40 -47 78 -43 279 35 93 36 186 74 205 84 19 10 145 129
280 264 l245 246 497 0 498 0 0 -200 c0 -200 0 -201 25 -225 32 -33 78 -33
111 0 l25 25 -3 246 -3 246 -37 34 -38 34 -457 0 -457 0 54 55 54 55 498 0
498 0 0 -1364z m-2842 363 l134 -170 -38 -49 c-21 -28 -41 -50 -44 -50 -4 0
-30 29 -58 65 -90 112 -116 106 -246 -60 -54 -69 -102 -125 -106 -125 -4 0
-33 31 -63 68 l-55 68 167 212 c91 117 168 212 171 211 3 0 65 -76 138 -170z
m1427 -497 c140 -178 255 -327 255 -332 0 -4 -9 -28 -21 -54 l-20 -46 -45 30
c-103 71 -186 89 -224 48 -24 -26 -26 -65 -4 -96 8 -12 46 -38 83 -56 37 -19
97 -62 134 -95 102 -92 152 -82 186 39 65 231 252 399 479 432 92 14 206 2
280 -27 l42 -17 0 -439 0 -439 -234 0 -234 0 -4 101 -3 101 -37 34 -38 34
-1590 0 -1590 0 -38 -34 -37 -34 -3 -101 -4 -101 -234 0 -234 0 2 348 3 347
85 29 c118 40 228 45 338 18 134 -34 205 -75 311 -179 105 -105 107 -105 211
-71 51 17 90 21 180 22 106 0 122 -2 205 -32 156 -58 161 -57 222 35 104 157
304 236 478 189 122 -32 237 -122 289 -224 51 -101 97 -107 188 -26 73 65 166
114 258 137 39 10 72 25 83 38 25 31 22 75 -9 106 -22 22 -32 25 -72 20 -77
-9 -178 -47 -260 -98 -76 -47 -77 -47 -91 -25 -8 11 -28 35 -44 53 l-30 32 34
44 c295 378 485 616 491 614 4 -1 122 -148 263 -325z m-1030 -5 l148 -189 -20
-20 -21 -20 -78 27 c-225 78 -467 23 -634 -145 l-76 -75 -51 17 c-120 40 -255
48 -396 22 l-89 -16 -44 43 c-24 24 -44 47 -44 51 0 10 322 418 329 418 4 0
29 -30 58 -67 73 -97 95 -115 146 -120 65 -8 96 14 188 131 l82 105 38 -49
c48 -61 97 -80 159 -61 31 9 51 27 92 80 29 38 56 66 59 62 3 -3 72 -91 154
-194z m-1055 -1157 l0 -220 -210 0 -210 0 0 220 0 220 210 0 210 0 0 -220z
m2600 -300 l0 -520 -1220 0 -1220 0 0 520 0 520 1220 0 1220 0 0 -520z m-2600
-300 l0 -220 -210 0 -210 0 0 220 0 220 210 0 210 0 0 -220z"/>
<path d="M870 3301 c-87 -27 -165 -94 -202 -176 -32 -71 -32 -189 1 -263 31
-68 113 -145 182 -167 78 -26 189 -17 258 20 150 82 208 266 132 420 -56 113
-159 176 -284 174 -34 0 -73 -4 -87 -8z m157 -168 c144 -68 92 -293 -67 -293
-88 0 -155 67 -155 155 0 116 116 189 222 138z"/>
<path d="M3806 3139 c-34 -27 -37 -88 -4 -119 18 -17 35 -20 103 -20 72 0 84
3 103 23 32 34 30 89 -4 116 -21 17 -41 21 -99 21 -58 0 -78 -4 -99 -21z"/>
<path d="M4136 2669 c-34 -27 -37 -88 -4 -119 18 -17 35 -20 103 -20 72 0 84
3 103 23 32 34 30 89 -4 116 -21 17 -41 21 -99 21 -58 0 -78 -4 -99 -21z"/>
<path d="M746 2489 c-34 -27 -37 -88 -4 -119 18 -17 35 -20 103 -20 72 0 84 3
103 23 32 34 30 89 -4 116 -21 17 -41 21 -99 21 -58 0 -78 -4 -99 -21z"/>
<path d="M1201 1174 c-17 -21 -21 -41 -21 -96 0 -81 8 -101 50 -118 24 -10 36
-10 60 0 42 17 50 37 50 118 0 89 -22 122 -80 122 -30 0 -43 -6 -59 -26z"/>
<path d="M1741 1184 c-20 -26 -21 -37 -21 -400 0 -205 3 -380 6 -389 18 -46
-4 -45 1124 -45 1128 0 1106 -1 1124 45 3 9 6 184 6 389 0 363 -1 374 -21 400
l-20 26 -1089 0 -1089 0 -20 -26z m329 -229 l0 -95 -95 0 -95 0 0 95 0 95 95
0 95 0 0 -95z m350 0 l0 -95 -95 0 -95 0 0 95 0 95 95 0 95 0 0 -95z m350 0
l0 -95 -95 0 -95 0 0 95 0 95 95 0 95 0 0 -95z m350 0 l0 -95 -95 0 -95 0 0
95 0 95 95 0 95 0 0 -95z m350 0 l0 -95 -95 0 -95 0 0 95 0 95 95 0 95 0 0
-95z m350 0 l0 -95 -95 0 -95 0 0 95 0 95 95 0 95 0 0 -95z m-1750 -350 l0
-95 -95 0 -95 0 0 95 0 95 95 0 95 0 0 -95z m350 0 l0 -95 -95 0 -95 0 0 95 0
95 95 0 95 0 0 -95z m350 0 l0 -95 -95 0 -95 0 0 95 0 95 95 0 95 0 0 -95z
m350 0 l0 -95 -95 0 -95 0 0 95 0 95 95 0 95 0 0 -95z m350 0 l0 -95 -95 0
-95 0 0 95 0 95 95 0 95 0 0 -95z m350 0 l0 -95 -95 0 -95 0 0 95 0 95 95 0
95 0 0 -95z"/>
<path d="M1201 584 c-17 -21 -21 -41 -21 -96 0 -81 8 -101 50 -118 24 -10 36
-10 60 0 42 17 50 37 50 118 0 89 -22 122 -80 122 -30 0 -43 -6 -59 -26z"/>
<path d="M336 4189 c-20 -16 -26 -29 -26 -60 0 -50 27 -79 75 -79 48 0 75 29
75 79 0 31 -6 44 -26 60 -15 12 -37 21 -49 21 -12 0 -34 -9 -49 -21z"/>
<path d="M556 4189 c-20 -16 -26 -29 -26 -60 0 -50 27 -79 75 -79 48 0 75 29
75 79 0 31 -6 44 -26 60 -15 12 -37 21 -49 21 -12 0 -34 -9 -49 -21z"/>
<path d="M776 4189 c-20 -16 -26 -29 -26 -60 0 -50 27 -79 75 -79 48 0 75 29
75 79 0 31 -6 44 -26 60 -15 12 -37 21 -49 21 -12 0 -34 -9 -49 -21z"/>
</g>
</svg>
