<?xml version="1.0" standalone="no"?>
<!DOCTYPE svg PUBLIC "-//W3C//DTD SVG 20010904//EN"
 "http://www.w3.org/TR/2001/REC-SVG-20010904/DTD/svg10.dtd">
<svg version="1.0" xmlns="http://www.w3.org/2000/svg"
 width="512.000000pt" height="512.000000pt" viewBox="0 0 512.000000 512.000000"
 preserveAspectRatio="xMidYMid meet">

<g transform="translate(0.000000,512.000000) scale(0.100000,-0.100000)"
fill="#181052" stroke="none">
<path d="M0 2560 l0 -2560 2560 0 2560 0 0 2560 0 2560 -2560 0 -2560 0 0
-2560z m4970 0 l0 -2410 -2410 0 -2410 0 0 2410 0 2410 2410 0 2410 0 0 -2410z"/>
<path d="M3748 2790 c-264 -48 -452 -198 -529 -420 -31 -91 -38 -269 -14 -374
56 -256 221 -412 610 -576 336 -142 415 -208 415 -345 0 -127 -96 -214 -257
-234 -201 -24 -384 58 -498 224 -22 31 -44 54 -50 53 -29 -7 -375 -214 -375
-224 0 -26 102 -163 166 -225 123 -117 241 -181 413 -226 119 -31 326 -42 452
-24 299 43 513 198 596 432 35 99 44 289 18 403 -56 253 -237 417 -660 596
-140 59 -249 115 -291 147 -75 60 -104 174 -65 258 48 107 177 152 318 110 58
-17 134 -81 173 -144 16 -26 30 -39 40 -35 15 5 338 211 354 225 14 13 -59
116 -138 194 -131 129 -275 184 -501 190 -71 2 -151 0 -177 -5z"/>
<path d="M2300 1915 c0 -570 -4 -871 -11 -904 -13 -64 -56 -122 -105 -146 -47
-23 -163 -31 -220 -16 -61 16 -119 65 -170 144 -26 40 -51 76 -55 81 -7 7
-343 -188 -378 -220 -11 -10 -9 -20 14 -63 94 -172 268 -304 470 -357 99 -26
351 -26 450 0 126 33 212 81 295 165 83 84 126 156 162 271 l22 75 4 913 3
912 -241 0 -240 0 0 -855z"/>
</g>
</svg>
