<?xml version="1.0" standalone="no"?>
<!DOCTYPE svg PUBLIC "-//W3C//DTD SVG 20010904//EN"
 "http://www.w3.org/TR/2001/REC-SVG-20010904/DTD/svg10.dtd">
<svg version="1.0" xmlns="http://www.w3.org/2000/svg"
 width="512.000000pt" height="512.000000pt" viewBox="0 0 512.000000 512.000000"
 preserveAspectRatio="xMidYMid meet">
<metadata>
Created by potrace 1.16, written by Peter Selinger 2001-2019
</metadata>
<g transform="translate(0.000000,512.000000) scale(0.100000,-0.100000)"
fill="#181052" stroke="none">
<path d="M3293 5105 c-111 -30 -196 -94 -264 -198 -67 -103 -69 -124 -69 -750
0 -331 4 -576 10 -607 16 -82 54 -155 115 -219 59 -62 146 -115 208 -126 l37
-7 0 -159 c0 -175 8 -210 55 -247 31 -24 97 -30 138 -11 13 6 102 100 198 210
l174 199 420 0 c347 0 431 3 480 15 124 32 226 119 287 243 l33 67 3 431 3
432 -27 21 c-34 27 -64 27 -98 0 l-26 -20 0 -363 c0 -361 -6 -451 -36 -508
-27 -53 -79 -101 -139 -130 l-60 -28 -451 0 c-427 0 -453 -1 -475 -19 -13 -10
-89 -94 -169 -185 l-145 -167 -5 165 c-6 193 -6 193 -99 206 -84 12 -142 42
-196 102 -76 85 -75 76 -75 704 0 643 -3 622 90 715 94 95 49 90 851 87 l694
-3 54 -30 c95 -53 141 -126 157 -254 4 -32 15 -62 25 -72 26 -26 83 -25 110 2
19 19 21 30 17 108 -4 72 -10 98 -38 156 -57 120 -174 215 -301 244 -28 7
-304 10 -739 10 -566 0 -705 -3 -747 -14z"/>
<path d="M2390 4784 c-238 -20 -433 -59 -631 -124 -681 -224 -1234 -718 -1527
-1364 -64 -141 -75 -201 -43 -231 27 -24 83 -25 109 -2 11 10 27 39 37 65 32
86 143 300 207 399 325 503 837 874 1414 1023 226 59 477 87 687 77 126 -6
129 -6 153 18 32 32 32 84 0 114 -22 21 -34 23 -192 26 -93 1 -189 1 -214 -1z"/>
<path d="M4204 4690 c-155 -43 -291 -83 -303 -90 -12 -6 -31 -26 -41 -43 -18
-30 -20 -52 -20 -304 l0 -273 -58 0 c-80 0 -143 -24 -201 -76 -96 -86 -122
-204 -67 -299 76 -128 292 -125 410 5 64 71 69 93 74 308 l4 192 52 15 c114
32 421 115 428 115 5 0 8 -39 8 -86 l0 -86 -30 7 c-38 8 -139 -18 -188 -49
-110 -69 -160 -204 -114 -308 63 -142 277 -158 409 -29 80 77 78 63 81 544 2
386 1 431 -14 464 -19 38 -79 73 -124 72 -14 -1 -151 -36 -306 -79z m286 -185
l0 -94 -42 -12 c-24 -6 -132 -35 -241 -65 -108 -30 -200 -54 -202 -54 -3 0 -5
42 -5 93 l0 94 238 65 c130 36 240 66 245 67 4 0 7 -42 7 -94z m-22 -601 c26
-18 27 -34 8 -72 -16 -31 -82 -72 -116 -72 -33 0 -60 18 -60 41 0 33 39 80 84
100 50 23 56 23 84 3z m-638 -105 c24 -43 -60 -129 -126 -129 -61 0 -78 45
-35 94 47 55 140 76 161 35z"/>
<path d="M2390 4434 c-532 -49 -988 -252 -1359 -609 -201 -193 -343 -386 -462
-630 -143 -296 -209 -564 -224 -927 l-7 -158 -95 0 -95 0 7 138 c8 188 21 294
52 454 25 129 26 137 10 162 -30 45 -103 47 -131 3 -18 -27 -53 -195 -72 -347
-20 -159 -19 -461 1 -500 18 -35 53 -55 112 -65 l43 -7 0 -148 0 -148 -28 -11
c-37 -15 -76 -52 -110 -103 l-27 -42 -3 -461 -3 -461 29 -54 c71 -137 239
-178 367 -90 24 17 52 44 62 60 17 29 20 30 90 30 l73 0 0 -62 c0 -84 17 -183
40 -236 29 -66 121 -155 193 -188 60 -28 68 -29 252 -32 210 -4 246 2 301 50
74 65 69 -3 72 937 2 594 -1 861 -9 899 -8 41 -21 64 -52 97 -59 61 -94 68
-312 63 -201 -5 -239 -14 -322 -78 -107 -80 -152 -177 -160 -342 l-6 -108 -66
0 -66 0 -44 51 c-24 28 -59 58 -77 67 l-34 16 0 147 0 147 42 7 c99 16 128 57
128 177 0 152 20 371 46 496 107 532 422 1001 880 1308 124 83 346 192 486
238 224 74 498 113 726 103 132 -6 134 -6 158 18 31 31 31 75 1 110 l-23 27
-169 3 c-94 2 -190 1 -215 -1z m-1086 -2566 c14 -20 16 -117 16 -843 0 -726
-2 -823 -16 -843 -14 -20 -23 -22 -115 -22 l-99 0 0 865 0 865 99 0 c92 0 101
-2 115 -22z m-364 -848 l0 -851 -27 15 c-36 18 -86 72 -109 116 -18 33 -19 74
-22 690 -2 458 0 671 8 707 13 60 57 125 103 153 18 11 35 20 40 20 4 0 7
-383 7 -850z m-626 449 l26 -31 0 -409 c0 -450 -1 -454 -60 -479 -24 -10 -36
-10 -60 0 -61 25 -60 14 -60 476 l0 421 26 27 c39 38 93 36 128 -5z m306 -449
l0 -340 -60 0 -60 0 0 340 0 340 60 0 60 0 0 -340z"/>
<path d="M4860 3070 c-26 -26 -26 -70 0 -144 53 -156 94 -414 105 -668 l7
-148 -95 0 -95 0 -6 148 c-12 244 -36 406 -91 598 -49 170 -85 213 -153 185
-54 -22 -58 -55 -22 -167 70 -218 96 -379 106 -649 7 -193 14 -219 63 -248 14
-8 45 -18 69 -22 l42 -7 0 -147 0 -147 -34 -16 c-18 -9 -53 -39 -77 -67 l-44
-51 -67 0 -68 0 0 63 c-1 220 -75 353 -238 430 -66 31 -69 32 -247 35 -218 5
-253 -2 -312 -63 -31 -33 -44 -56 -52 -97 -8 -37 -11 -242 -9 -650 3 -570 4
-597 22 -617 26 -28 88 -29 116 -1 20 20 20 33 20 623 0 529 2 605 16 625 14
20 23 22 115 22 l99 0 0 -865 0 -865 -99 0 c-128 0 -131 4 -131 141 0 84 -3
98 -20 114 -29 26 -85 25 -113 -3 -20 -21 -22 -32 -22 -145 0 -137 8 -162 69
-215 55 -48 91 -54 301 -50 182 3 193 4 248 30 73 35 156 113 190 180 29 59
47 151 47 246 l0 62 73 0 c70 0 73 -1 90 -30 10 -16 38 -43 62 -60 128 -88
296 -47 367 90 l29 54 -3 460 c-3 512 0 485 -73 558 -20 20 -50 42 -66 48
l-29 12 0 148 0 148 43 7 c59 10 94 30 112 65 18 35 21 334 4 488 -21 197
-100 524 -135 563 -24 26 -88 25 -114 -1z m-641 -1214 c45 -24 89 -82 106
-140 14 -47 15 -140 13 -717 -3 -625 -4 -666 -22 -699 -23 -44 -73 -98 -108
-116 l-28 -15 0 851 c0 467 2 850 5 850 4 0 19 -7 34 -14z m715 -382 l26 -27
0 -424 0 -424 -24 -24 c-13 -13 -35 -27 -49 -30 -33 -9 -85 19 -97 51 -6 15
-10 198 -10 434 l0 408 26 31 c35 41 89 43 128 5z m-314 -454 l0 -340 -60 0
-60 0 0 340 0 340 60 0 60 0 0 -340z"/>
</g>
</svg>
