<?xml version="1.0" standalone="no"?>
<!DOCTYPE svg PUBLIC "-//W3C//DTD SVG 20010904//EN"
 "http://www.w3.org/TR/2001/REC-SVG-20010904/DTD/svg10.dtd">
<svg version="1.0" xmlns="http://www.w3.org/2000/svg"
 width="512.000000pt" height="512.000000pt" viewBox="0 0 512.000000 512.000000"
 preserveAspectRatio="xMidYMid meet">
<metadata>
Created by potrace 1.16, written by Peter Selinger 2001-2019
</metadata>
<g transform="translate(0.000000,512.000000) scale(0.100000,-0.100000)"
fill="#181052" stroke="none">
<path d="M17 5042 c-16 -17 -17 -204 -17 -2484 0 -2375 1 -2466 18 -2481 17
-15 63 -17 449 -17 333 0 433 3 440 13 6 6 68 153 139 324 l129 313 1120 0
1120 0 115 -302 c63 -165 123 -311 133 -324 l18 -24 703 0 c668 0 704 1 719
18 16 17 17 204 17 2484 0 2375 -1 2466 -18 2481 -17 16 -208 17 -2544 17
-2433 0 -2526 -1 -2541 -18z m4433 -2157 l0 -2035 -2155 0 -2155 0 0 2035 0
2035 2155 0 2155 0 0 -2035z m530 -325 l0 -2360 -195 0 -195 0 0 2360 0 2360
195 0 195 0 0 -2360z m-3984 -1867 c-4 -10 -48 -125 -99 -255 l-92 -238 -332
0 -333 0 0 255 0 255 431 0 c406 0 431 -1 425 -17z m3454 -238 l0 -255 -337 0
-338 0 -92 238 c-51 130 -95 245 -99 255 -6 16 19 17 430 17 l436 0 0 -255z"/>
<path d="M407 4782 c-16 -17 -17 -163 -17 -1894 0 -1804 1 -1876 18 -1891 17
-16 163 -17 1889 -17 1799 0 1871 1 1886 18 16 17 17 163 17 1894 0 1804 -1
1876 -18 1891 -17 16 -163 17 -1889 17 -1799 0 -1871 -1 -1886 -18z m3653
-1892 l0 -1770 -1765 0 -1765 0 0 1770 0 1770 1765 0 1765 0 0 -1770z"/>
<path d="M1037 4532 c-13 -14 -17 -39 -17 -109 l0 -91 -61 -4 c-53 -4 -64 -9
-97 -41 -33 -33 -36 -42 -40 -102 l-4 -65 -93 0 c-105 0 -125 -11 -125 -72 0
-57 22 -68 128 -68 l92 0 0 -35 0 -35 -93 0 c-107 0 -127 -11 -127 -72 0 -57
22 -68 128 -68 l92 0 0 -30 0 -30 -93 0 c-107 0 -127 -11 -127 -72 0 -57 22
-68 128 -68 l92 0 0 -30 0 -30 -93 0 c-107 0 -127 -11 -127 -72 0 -57 22 -68
128 -68 l92 0 0 -58 c0 -99 60 -162 155 -162 l45 0 0 -93 c0 -107 11 -127 72
-127 57 0 68 22 68 128 l0 92 35 0 35 0 0 -93 c0 -107 11 -127 72 -127 57 0
68 22 68 128 l0 92 30 0 30 0 0 -93 c0 -107 11 -127 72 -127 57 0 68 22 68
128 l0 92 35 0 35 0 0 -93 c0 -107 11 -127 72 -127 57 0 68 22 68 128 l0 92
45 0 c95 0 155 63 155 162 l0 58 93 0 c107 0 127 11 127 72 0 57 -22 68 -128
68 l-92 0 0 30 0 30 93 0 c107 0 127 11 127 72 0 57 -22 68 -128 68 l-92 0 0
30 0 30 93 0 c107 0 127 11 127 72 0 57 -22 68 -128 68 l-92 0 0 35 0 35 93 0
c107 0 127 11 127 72 0 56 -22 68 -127 68 l-91 0 -4 65 c-4 60 -7 69 -40 102
-33 32 -44 37 -97 41 l-61 4 0 93 c0 105 -11 125 -72 125 -57 0 -68 -22 -68
-128 l0 -92 -35 0 -35 0 0 93 c0 107 -11 127 -72 127 -57 0 -68 -22 -68 -128
l0 -92 -30 0 -30 0 0 93 c0 107 -11 127 -72 127 -57 0 -68 -22 -68 -128 l0
-92 -35 0 -35 0 0 93 c0 78 -3 97 -18 110 -25 23 -85 22 -105 -1z m801 -434
l3 -88 -132 0 -131 0 -29 -31 c-16 -17 -29 -35 -29 -40 0 -5 -23 -9 -52 -9
-49 0 -50 1 -35 18 10 10 17 34 17 52 0 54 -23 70 -97 70 -61 0 -64 1 -99 40
l-36 40 -129 0 c-101 0 -129 3 -129 13 0 8 3 17 7 20 3 4 200 6 437 5 l431 -3
3 -87z m-655 -128 l34 -40 88 0 c85 0 87 -1 72 -18 -10 -10 -17 -34 -17 -52 0
-60 20 -70 135 -70 l101 0 30 40 29 40 93 0 92 0 0 -150 0 -150 -92 0 -93 1
-27 39 -28 40 -87 0 c-68 0 -84 3 -75 12 17 17 15 78 -5 100 -14 15 -32 18
-118 18 l-103 0 -36 -40 -36 -40 -90 0 -90 0 0 155 0 155 94 0 94 0 35 -40z
m189 -342 c-17 -17 -15 -78 5 -100 12 -13 31 -18 75 -18 55 0 60 -2 94 -40
l36 -40 129 0 129 0 0 -54 c0 -94 43 -86 -440 -86 -381 0 -429 2 -434 16 -3 9
-6 69 -6 135 l0 119 127 0 126 0 34 40 c32 37 38 40 86 40 40 0 48 -3 39 -12z"/>
<path d="M2397 4532 c-14 -15 -17 -42 -17 -161 0 -137 1 -143 25 -166 l24 -25
696 0 696 0 24 25 c24 23 25 29 25 168 0 162 -6 177 -72 177 -57 0 -68 -21
-68 -133 l0 -97 -605 0 -605 0 0 98 c0 83 -3 102 -18 115 -25 23 -85 22 -105
-1z"/>
<path d="M2397 4122 c-14 -15 -17 -42 -17 -161 0 -137 1 -143 25 -166 l24 -25
696 0 696 0 24 25 c24 23 25 29 25 168 0 162 -6 177 -72 177 -57 0 -68 -21
-68 -133 l0 -97 -605 0 -605 0 0 98 c0 83 -3 102 -18 115 -25 23 -85 22 -105
-1z"/>
<path d="M2577 3652 c-13 -14 -17 -38 -17 -95 l0 -77 -38 0 c-67 0 -72 -13
-72 -202 0 -186 4 -198 73 -198 l37 0 0 -78 c0 -91 13 -112 72 -112 54 0 68
23 68 113 l0 77 40 0 40 0 0 -78 c0 -91 13 -112 72 -112 54 0 68 23 68 113 l0
77 38 0 c67 0 72 13 72 202 0 186 -4 198 -73 198 l-37 0 0 78 c0 91 -13 112
-72 112 -54 0 -68 -23 -68 -113 l0 -77 -40 0 -40 0 0 78 c0 64 -4 82 -18 95
-25 23 -85 22 -105 -1z m313 -372 l0 -60 -150 0 -150 0 0 60 0 60 150 0 150 0
0 -60z"/>
<path d="M3347 3652 c-13 -14 -17 -38 -17 -95 l0 -77 -38 0 c-67 0 -72 -13
-72 -202 0 -186 4 -198 73 -198 l37 0 0 -78 c0 -91 13 -112 72 -112 54 0 68
23 68 113 l0 77 40 0 40 0 0 -78 c0 -91 13 -112 72 -112 54 0 68 23 68 113 l0
77 38 0 c67 0 72 13 72 202 0 186 -4 198 -73 198 l-37 0 0 78 c0 91 -13 112
-72 112 -54 0 -68 -23 -68 -113 l0 -77 -40 0 -40 0 0 78 c0 64 -4 82 -18 95
-25 23 -85 22 -105 -1z m313 -372 l0 -60 -150 0 -150 0 0 60 0 60 150 0 150 0
0 -60z"/>
<path d="M2030 3153 c-31 -17 -65 -45 -84 -71 -27 -39 -31 -53 -34 -120 -3
-72 -1 -80 30 -132 24 -39 49 -64 88 -88 52 -31 60 -33 132 -30 67 3 81 7 120
34 117 85 134 280 32 376 -70 65 -193 78 -284 31z m177 -145 c52 -49 14 -148
-57 -148 -45 0 -90 47 -90 94 0 67 95 103 147 54z"/>
<path d="M1213 2885 c-261 -59 -480 -244 -583 -491 -44 -106 -60 -191 -60
-324 0 -235 78 -425 242 -588 164 -165 352 -242 588 -242 236 0 424 77 588
242 116 115 193 255 227 412 24 109 17 321 -15 421 -49 157 -149 304 -272 405
-72 58 -215 132 -303 156 -83 23 -328 28 -412 9z m347 -151 c187 -42 368 -188
455 -369 52 -107 68 -189 63 -325 -5 -129 -30 -216 -90 -318 -42 -73 -167
-198 -240 -240 -211 -124 -485 -124 -696 0 -73 42 -198 167 -240 240 -18 31
-45 89 -60 130 -24 67 -27 86 -27 218 0 132 3 151 27 218 15 41 42 99 60 130
42 73 167 198 240 240 151 89 328 116 508 76z"/>
<path d="M1313 2703 c-26 -5 -53 -39 -53 -66 0 -10 18 -50 39 -90 53 -97 63
-136 23 -82 -49 66 -188 165 -230 165 -56 0 -200 -138 -251 -241 -36 -73 -38
-97 -10 -133 19 -24 26 -26 102 -27 83 0 137 -12 107 -22 -8 -3 -41 -10 -74
-17 -32 -7 -91 -28 -130 -49 l-71 -36 -3 -65 c-4 -79 11 -155 48 -235 38 -85
84 -135 124 -135 40 0 47 6 80 62 15 26 44 66 66 90 l38 43 -25 -75 c-19 -57
-26 -97 -27 -169 l-1 -95 34 -23 c64 -43 152 -63 281 -63 132 0 138 3 147 69
4 32 0 49 -24 88 -56 91 -52 104 13 42 84 -81 141 -119 179 -119 94 0 267 194
281 317 7 63 -11 76 -108 79 -46 1 -101 9 -123 17 l-40 16 44 0 c91 2 270 68
285 106 11 29 6 128 -9 184 -18 69 -56 146 -95 194 -26 31 -38 37 -69 37 -42
0 -58 -14 -110 -97 -47 -76 -64 -85 -39 -21 14 36 22 86 26 155 l5 102 -49 31
c-73 46 -136 62 -254 66 -58 1 -115 0 -127 -3z m168 -496 c56 -38 82 -84 76
-140 -14 -152 -209 -202 -287 -75 -43 71 -18 175 52 218 46 28 115 26 159 -3z
m-181 -481 c0 -29 7 -72 15 -95 l14 -41 -28 0 c-39 0 -91 19 -91 34 0 16 26
114 39 149 9 24 14 26 31 17 16 -9 20 -21 20 -64z"/>
<path d="M2485 2696 c-42 -18 -93 -79 -100 -118 -3 -18 -5 -299 -3 -625 l3
-591 31 -38 c55 -69 76 -79 164 -79 88 0 109 10 164 79 l31 38 3 604 c3 648 4
630 -47 688 -46 52 -173 74 -246 42z m144 -167 c17 -48 15 -1076 -2 -1109 -10
-19 -20 -25 -47 -25 -27 0 -37 6 -47 25 -17 33 -19 1061 -2 1109 10 27 15 31
49 31 34 0 39 -4 49 -31z"/>
<path d="M3035 2696 c-42 -18 -93 -79 -100 -118 -3 -18 -5 -299 -3 -625 l3
-591 31 -38 c55 -69 76 -79 164 -79 88 0 109 10 164 79 l31 38 3 604 c3 648 4
630 -47 688 -46 52 -173 74 -246 42z m144 -167 c17 -48 15 -1076 -2 -1109 -10
-19 -20 -25 -47 -25 -27 0 -37 6 -47 25 -17 33 -19 1061 -2 1109 10 27 15 31
49 31 34 0 39 -4 49 -31z"/>
<path d="M3563 2685 c-27 -16 -49 -40 -62 -68 -21 -42 -21 -55 -21 -641 0
-573 1 -598 20 -635 39 -78 101 -108 201 -99 56 6 87 25 133 82 l31 38 3 604
c3 648 4 630 -47 688 -53 60 -183 76 -258 31z m156 -156 c7 -22 11 -201 11
-558 0 -575 0 -576 -55 -576 -55 0 -55 -2 -53 595 2 300 7 551 11 558 5 6 23
12 42 12 28 0 35 -5 44 -31z"/>
</g>
</svg>
