<?xml version="1.0" standalone="no"?>
<!DOCTYPE svg PUBLIC "-//W3C//DTD SVG 20010904//EN"
 "http://www.w3.org/TR/2001/REC-SVG-20010904/DTD/svg10.dtd">
<svg version="1.0" xmlns="http://www.w3.org/2000/svg"
 width="512.000000pt" height="512.000000pt" viewBox="0 0 512.000000 512.000000"
 preserveAspectRatio="xMidYMid meet">
<metadata>
Created by potrace 1.16, written by Peter Selinger 2001-2019
</metadata>
<g transform="translate(0.000000,512.000000) scale(0.100000,-0.100000)"
fill="#181052" stroke="none">
<path d="M3035 4649 c-112 -12 -244 -52 -354 -107 -100 -50 -118 -71 -97 -113
18 -36 52 -35 131 5 152 76 280 107 445 107 171 1 319 -35 459 -111 30 -17 65
-30 77 -30 48 0 72 61 36 93 -32 29 -205 105 -287 126 -85 21 -236 42 -295 40
-19 -1 -71 -5 -115 -10z"/>
<path d="M3075 4453 c-151 -18 -369 -102 -386 -149 -10 -29 11 -68 40 -72 12
-2 55 12 94 32 114 56 215 79 337 79 128 1 214 -19 333 -75 73 -35 92 -40 115
-32 29 10 37 31 28 69 -4 16 -27 33 -78 58 -154 75 -333 109 -483 90z"/>
<path d="M510 4332 c-19 -9 -45 -32 -57 -51 -22 -33 -23 -42 -23 -257 0 -221
0 -224 23 -238 29 -20 66 -10 78 21 5 13 9 111 9 217 0 136 3 195 12 204 9 9
229 12 930 12 905 0 918 0 938 20 24 24 25 38 4 68 l-15 22 -932 0 c-867 0
-934 -1 -967 -18z"/>
<path d="M3906 4334 c-9 -8 -16 -26 -16 -39 0 -54 5 -55 349 -55 233 0 320 -3
329 -12 9 -9 12 -109 12 -390 0 -365 1 -379 20 -398 22 -22 42 -25 71 -10 18
10 19 26 19 414 0 551 39 506 -442 506 -284 0 -329 -2 -342 -16z"/>
<path d="M3075 4254 c-102 -17 -223 -63 -267 -102 -23 -20 -23 -55 0 -75 26
-23 40 -22 115 13 156 73 309 75 473 4 73 -31 89 -35 110 -25 21 9 25 17 22
49 -3 35 -7 39 -68 69 -36 18 -92 40 -125 48 -63 16 -209 27 -260 19z"/>
<path d="M710 4132 c-19 -9 -45 -32 -57 -51 -23 -34 -23 -37 -23 -372 l0 -339
-29 0 c-16 0 -36 -3 -45 -6 -14 -5 -16 8 -16 108 0 87 -4 119 -16 136 -17 24
-62 30 -82 10 -9 -9 -12 -363 -12 -1531 l0 -1520 21 -34 c45 -72 -10 -68 913
-71 734 -2 832 -1 852 13 26 17 30 44 14 76 -10 17 -23 19 -153 19 l-142 0 3
45 4 45 811 0 810 0 55 -43 55 -42 -383 -3 c-263 -1 -387 -6 -397 -13 -22 -19
-16 -67 11 -84 20 -14 78 -15 456 -13 l432 3 24 28 c24 28 30 60 18 92 -6 16
-177 150 -221 173 -15 8 -95 12 -248 12 l-226 0 -117 88 c-145 110 -149 112
-211 112 l-51 0 0 90 0 90 908 0 c1012 0 950 -4 999 69 l23 34 0 1001 c0 766
-3 1005 -12 1014 -20 20 -65 14 -82 -10 -14 -20 -16 -98 -16 -650 0 -610 -1
-628 -19 -638 -13 -7 -443 -10 -1320 -10 l-1301 0 0 45 0 45 1218 0 c1166 0
1219 1 1252 19 19 10 45 33 57 51 23 32 23 38 23 334 0 324 0 326 -51 326 -56
0 -59 -16 -59 -322 0 -264 -1 -278 -19 -288 -13 -7 -412 -10 -1220 -10 l-1201
0 0 546 c0 536 0 547 -21 584 -11 20 -35 45 -52 56 -30 18 -61 19 -579 22
l-548 3 0 322 c0 238 3 326 12 335 9 9 207 12 830 12 805 0 818 0 838 20 24
24 25 38 4 68 l-15 22 -832 0 c-772 0 -835 -1 -867 -18z m1104 -888 c14 -13
16 -54 16 -297 l0 -282 -578 -290 c-498 -250 -580 -295 -599 -324 l-23 -34 0
-723 0 -724 -26 0 c-14 0 -34 5 -45 10 -19 11 -19 36 -19 1335 0 1250 1 1325
18 1334 11 7 232 10 629 11 543 0 613 -2 627 -16z m-1 -808 c-10 -6 -225 -114
-478 -241 -394 -197 -463 -235 -482 -264 l-23 -34 0 -663 0 -664 -45 0 -45 0
2 712 3 713 540 271 540 272 3 -46 c3 -35 -1 -48 -15 -56z m17 -980 l0 -855
-22 -15 c-19 -14 -79 -16 -445 -16 l-423 0 0 650 0 650 438 219 c240 121 440
220 445 220 4 1 7 -383 7 -853z m1953 376 c-12 -9 -82 -63 -155 -119 l-134
-103 -367 0 -367 0 -19 38 c-77 150 -285 150 -362 0 l-19 -38 -210 0 -210 0 0
120 0 120 933 0 c885 0 931 -1 910 -18z m342 10 c-6 -5 -68 -53 -140 -108
-168 -127 -175 -135 -175 -179 0 -44 7 -52 175 -179 72 -55 134 -103 140 -108
5 -4 -22 -8 -62 -8 l-70 0 -192 147 c-105 81 -188 150 -184 154 5 4 91 71 192
148 l183 141 71 0 c40 0 67 -4 62 -8z m455 -275 c0 -207 -3 -286 -12 -295 -8
-8 -52 -12 -130 -12 l-119 0 -190 147 c-104 80 -186 150 -182 154 4 4 89 71
188 148 l180 140 133 0 132 1 0 -283z m-1959 54 c21 -22 29 -39 29 -66 0 -48
-44 -95 -90 -95 -46 0 -90 47 -90 95 0 48 44 95 90 95 22 0 41 -9 61 -29z
m-242 -158 c24 -48 56 -78 103 -98 98 -41 210 1 259 98 l19 37 367 0 367 0
134 -102 c73 -57 143 -111 155 -120 21 -17 -25 -18 -910 -18 l-933 0 0 120 0
120 210 0 210 0 19 -37z m-19 -403 l0 -90 -51 0 c-62 0 -66 -2 -211 -112 -64
-48 -126 -88 -138 -88 -19 0 -20 5 -20 190 l0 190 210 0 210 0 0 -90z m300 0
l0 -90 -100 0 -100 0 0 90 0 90 100 0 100 0 0 -90z m234 -245 l59 -45 -393 0
-393 0 59 45 59 44 275 0 275 0 59 -44z"/>
<path d="M648 3159 c-21 -12 -24 -69 -6 -87 17 -17 1069 -17 1086 0 20 20 14
65 -10 82 -20 14 -87 16 -538 16 -331 0 -521 -4 -532 -11z"/>
<path d="M648 2959 c-21 -12 -24 -69 -6 -87 17 -17 1069 -17 1086 0 20 20 14
65 -10 82 -20 14 -87 16 -538 16 -331 0 -521 -4 -532 -11z"/>
<path d="M648 2759 c-21 -12 -24 -69 -6 -87 9 -9 133 -12 498 -12 459 0 488 1
503 18 22 25 21 48 -3 72 -19 19 -33 20 -497 20 -306 0 -484 -4 -495 -11z"/>
<path d="M714 2551 c-108 -49 -114 -208 -12 -271 98 -60 232 15 232 128 0 65
-28 111 -84 140 -53 27 -82 27 -136 3z"/>
<path d="M1324 1860 c-109 -16 -208 -91 -265 -200 -21 -39 -24 -59 -24 -150 0
-96 2 -110 29 -163 36 -71 99 -130 174 -165 49 -23 70 -27 147 -27 76 0 99 5
146 27 79 36 133 89 171 166 30 61 33 75 33 162 0 83 -3 102 -27 150 -49 99
-149 179 -244 195 -74 12 -89 13 -140 5z m127 -116 c41 -12 66 -28 104 -67 80
-82 97 -179 49 -275 -80 -162 -290 -188 -407 -52 -132 154 -26 388 184 409 8
0 40 -6 70 -15z"/>
<path d="M1336 1660 c-64 -20 -106 -83 -106 -158 0 -117 116 -185 225 -132
108 52 113 211 9 272 -38 22 -92 29 -128 18z"/>
<path d="M1075 1028 c-41 -22 -45 -37 -45 -180 0 -123 2 -140 19 -157 30 -30
63 -32 363 -29 l276 3 26 24 c26 24 26 27 26 160 -1 142 -5 157 -47 179 -29
16 -589 16 -618 0z m555 -178 l0 -80 -245 0 -245 0 0 80 0 80 245 0 245 0 0
-80z"/>
<path d="M3906 4134 c-9 -8 -16 -26 -16 -39 0 -52 13 -55 249 -55 155 0 220
-3 229 -12 9 -9 12 -87 12 -290 0 -265 1 -279 20 -298 22 -22 42 -25 71 -10
18 10 19 24 19 314 0 298 0 304 -23 337 -43 64 -65 69 -319 69 -193 0 -229 -2
-242 -16z"/>
<path d="M3087 4050 c-67 -12 -144 -41 -167 -63 -25 -22 -26 -59 -2 -80 24
-22 44 -21 90 2 91 47 204 46 313 0 40 -18 54 -20 74 -11 34 16 35 75 2 97
-69 45 -218 71 -310 55z"/>
<path d="M2745 3821 c-107 -13 -212 -59 -302 -130 -57 -44 -132 -143 -163
-214 -27 -60 -150 -565 -150 -614 0 -52 36 -120 83 -157 33 -27 48 -31 110
-34 99 -4 122 10 239 154 81 100 106 124 158 152 l62 32 376 0 c407 -1 419 -2
488 -55 20 -16 75 -77 122 -136 99 -126 134 -149 228 -149 135 1 221 111 194
248 -41 202 -126 515 -158 582 -46 98 -157 212 -252 259 -129 63 -136 63 -575
66 -220 2 -427 0 -460 -4z m625 -146 l-31 -45 -181 2 -180 3 -25 43 -25 42
236 0 237 0 -31 -45z m300 10 c105 -38 206 -128 259 -234 33 -65 151 -524 151
-588 0 -48 -37 -83 -88 -83 -48 0 -60 10 -145 120 -84 109 -129 152 -194 184
-81 41 -175 48 -550 44 -321 -4 -341 -5 -395 -26 -83 -33 -135 -78 -231 -200
-90 -114 -99 -122 -149 -122 -37 0 -88 48 -88 83 0 54 121 524 151 585 63 130
220 245 350 259 l56 5 51 -80 c29 -45 62 -88 74 -96 19 -13 60 -16 244 -16
257 0 234 -8 318 121 l49 75 46 -7 c25 -4 66 -15 91 -24z"/>
<path d="M2690 3583 c-27 -9 -40 -36 -40 -79 l0 -41 -52 -5 c-53 -6 -78 -24
-78 -59 0 -32 29 -49 81 -49 l49 0 0 -46 c0 -63 13 -84 53 -84 46 0 57 16 57
77 l0 53 53 0 c60 0 77 12 77 51 0 37 -33 59 -87 59 l-43 0 0 49 c0 40 -4 53
-22 65 -24 17 -25 17 -48 9z"/>
<path d="M3032 3308 c-7 -7 -12 -24 -12 -38 0 -45 15 -50 147 -50 122 0 124 0
135 25 8 19 8 31 0 50 -11 25 -13 25 -135 25 -82 0 -127 -4 -135 -12z"/>
</g>
</svg>
