<?xml version="1.0" standalone="no"?>
<!DOCTYPE svg PUBLIC "-//W3C//DTD SVG 20010904//EN"
 "http://www.w3.org/TR/2001/REC-SVG-20010904/DTD/svg10.dtd">
<svg version="1.0" xmlns="http://www.w3.org/2000/svg"
 width="512.000000pt" height="512.000000pt" viewBox="0 0 512.000000 512.000000"
 preserveAspectRatio="xMidYMid meet">

<g transform="translate(0.000000,512.000000) scale(0.100000,-0.100000)"
fill="#ffffff" stroke="none">
<path d="M1675 4944 c-79 -17 -199 -66 -282 -116 -86 -51 -202 -170 -276 -283
-128 -197 -300 -555 -377 -785 -89 -268 -136 -715 -111 -1073 47 -671 248
-1231 617 -1724 46 -61 96 -121 110 -132 40 -31 80 -27 120 13 54 54 50 68
-62 212 -321 414 -520 922 -586 1499 -16 140 -16 537 0 680 16 136 48 322 69
395 63 220 245 606 390 827 132 202 333 312 567 313 150 0 280 -43 405 -135
70 -51 101 -95 101 -143 0 -21 -70 -177 -215 -478 -118 -245 -224 -459 -236
-475 -11 -16 -41 -41 -66 -56 -50 -29 -114 -35 -203 -19 -91 16 -183 -34 -214
-117 -39 -104 -72 -432 -61 -602 24 -384 117 -713 287 -1020 92 -167 136 -205
236 -205 37 0 66 9 125 40 94 50 156 54 233 15 56 -29 695 -638 728 -694 14
-25 20 -53 20 -100 1 -93 -33 -160 -128 -248 -223 -208 -547 -239 -815 -77
-71 43 -94 43 -137 0 -70 -70 -34 -132 119 -206 129 -62 229 -84 377 -84 97 0
144 5 210 23 357 95 605 383 560 651 -23 139 -35 155 -420 524 -192 185 -369
348 -392 363 -128 80 -304 83 -436 7 -23 -14 -47 -22 -52 -19 -14 9 -95 156
-139 253 -145 324 -210 690 -182 1027 11 132 32 270 43 280 2 2 32 -1 66 -7
121 -22 263 26 357 121 52 52 80 104 341 646 l179 370 0 85 c-1 104 -23 158
-99 232 -118 116 -277 197 -450 227 -83 15 -237 12 -321 -5z"/>
<path d="M3265 4094 c-320 -49 -617 -261 -760 -544 -81 -161 -108 -276 -110
-485 l-2 -160 -81 -262 c-45 -144 -82 -272 -82 -285 0 -28 23 -64 50 -78 11
-6 142 -17 291 -26 l271 -15 66 -37 c156 -88 275 -121 457 -129 197 -8 339 23
515 113 361 185 584 596 540 997 -40 362 -244 655 -565 812 -153 75 -246 97
-420 101 -77 1 -153 0 -170 -2z m335 -204 c236 -56 438 -218 546 -435 65 -132
86 -224 86 -370 0 -146 -21 -238 -86 -370 -81 -165 -204 -286 -371 -369 -121
-60 -187 -76 -335 -83 -184 -8 -308 25 -480 126 l-65 39 -219 11 c-121 6 -221
13 -222 14 -2 2 27 97 63 212 l67 210 1 175 c2 184 10 229 59 352 85 210 286
398 501 468 135 45 317 52 455 20z"/>
<path d="M3005 3128 c-15 -14 -28 -38 -31 -59 -5 -31 -1 -42 24 -70 41 -46 92
-47 133 -1 39 43 38 84 0 123 -37 37 -88 39 -126 7z"/>
<path d="M3387 3139 c-27 -16 -49 -67 -42 -98 18 -82 133 -102 170 -30 23 43
18 77 -14 110 -31 31 -79 38 -114 18z"/>
<path d="M3745 3125 c-17 -17 -25 -35 -25 -60 0 -49 15 -74 56 -91 29 -12 39
-12 68 0 40 17 56 42 56 89 0 77 -100 117 -155 62z"/>
<path d="M1596 679 c-35 -41 -34 -83 3 -120 41 -40 91 -40 132 0 37 37 38 79
3 120 -21 26 -33 31 -69 31 -36 0 -48 -5 -69 -31z"/>
</g>
</svg>
