<?xml version="1.0" standalone="no"?>
<!DOCTYPE svg PUBLIC "-//W3C//DTD SVG 20010904//EN"
 "http://www.w3.org/TR/2001/REC-SVG-20010904/DTD/svg10.dtd">
<svg version="1.0" xmlns="http://www.w3.org/2000/svg"
 width="512.000000pt" height="512.000000pt" viewBox="0 0 512.000000 512.000000"
 preserveAspectRatio="xMidYMid meet">

<g transform="translate(0.000000,512.000000) scale(0.100000,-0.100000)"
fill="#181052" stroke="none">
<path d="M1385 4825 c-117 -37 -201 -101 -272 -208 -151 -225 -173 -609 -63
-1096 11 -51 19 -95 18 -96 -2 -1 -77 -27 -168 -58 -580 -195 -900 -482 -900
-807 1 -326 360 -633 960 -821 58 -18 106 -33 107 -34 2 -1 -11 -66 -27 -146
-80 -385 -78 -704 6 -919 67 -171 172 -279 320 -330 80 -28 270 -28 370 -1
220 62 463 210 722 441 l103 92 52 -46 c290 -258 499 -395 722 -472 68 -24
100 -29 214 -32 148 -4 193 3 284 51 108 56 219 204 261 347 69 231 60 559
-24 930 -10 46 -18 85 -17 86 1 0 49 15 107 33 340 106 594 244 766 415 139
140 194 255 194 410 0 338 -356 640 -983 832 -69 21 -87 30 -83 43 67 243 104
632 77 822 -43 302 -169 487 -379 558 -93 32 -260 29 -378 -4 -222 -64 -500
-239 -734 -462 l-76 -71 -89 80 c-274 245 -527 401 -741 457 -93 24 -281 28
-349 6z m310 -227 c102 -29 201 -79 333 -168 117 -78 277 -207 341 -273 l33
-35 -102 -119 c-56 -65 -153 -186 -216 -268 l-114 -151 -112 -13 c-170 -19
-300 -39 -437 -67 -68 -14 -127 -21 -131 -17 -20 22 -69 306 -80 464 -22 335
48 570 194 646 69 36 171 36 291 1z m2022 -4 c84 -40 136 -118 175 -262 17
-65 21 -107 21 -262 0 -156 -4 -208 -26 -335 -39 -218 -48 -250 -72 -249 -11
1 -86 13 -166 28 -80 15 -225 37 -322 49 l-176 23 -101 134 c-117 154 -155
201 -259 318 l-73 83 23 26 c47 50 259 223 346 281 268 180 481 236 630 166z
m-1076 -721 c99 -116 209 -254 209 -262 0 -3 -130 -6 -290 -6 -159 0 -290 2
-290 5 0 12 280 348 291 349 3 1 39 -38 80 -86z m331 -499 l58 -7 79 -121
c117 -179 193 -311 294 -505 l90 -174 -71 -141 c-93 -184 -180 -338 -294 -515
-76 -118 -99 -146 -123 -153 -49 -14 -607 -21 -764 -10 -131 10 -147 13 -161
32 -75 99 -256 405 -373 629 l-81 155 60 115 c100 194 182 338 296 519 95 150
113 172 136 173 15 1 77 5 137 9 119 9 625 4 717 -6z m-1221 -126 c-32 -51
-99 -166 -149 -256 l-90 -163 -21 47 c-35 77 -131 342 -134 366 -2 21 6 24
110 45 117 23 282 50 320 52 20 1 16 -8 -36 -91z m1684 77 c170 -25 335 -58
335 -68 0 -15 -70 -212 -116 -326 l-41 -104 -25 44 c-14 24 -52 91 -83 149
-32 58 -87 151 -122 208 -35 56 -63 105 -63 107 0 7 3 7 115 -10z m-2255 -255
c47 -138 101 -278 161 -415 l40 -91 -60 -139 c-56 -131 -128 -322 -166 -443
-10 -29 -21 -54 -25 -57 -9 -5 -236 70 -330 110 -239 100 -408 212 -496 329
-63 83 -77 119 -77 201 -1 58 4 80 27 125 34 65 128 166 211 225 67 48 241
142 325 176 117 46 335 118 342 111 3 -4 25 -63 48 -132z m2925 103 c424 -134
716 -333 780 -531 78 -238 -203 -492 -750 -677 -76 -25 -141 -43 -145 -38 -4
4 -26 63 -49 131 -42 126 -149 398 -182 464 l-19 38 46 107 c63 147 124 308
164 428 39 121 38 118 59 110 9 -4 52 -18 96 -32z m-2511 -1023 c42 -76 106
-187 142 -245 35 -59 64 -109 64 -112 0 -12 -431 58 -448 73 -8 6 148 424 159
424 3 0 40 -63 83 -140z m2064 38 c44 -113 112 -306 112 -318 0 -7 -150 -39
-290 -60 -41 -7 -94 -15 -118 -20 -53 -10 -55 -17 41 143 41 67 103 175 138
239 35 65 67 118 71 118 3 0 24 -46 46 -102z m-2198 -572 c74 -14 169 -30 210
-35 41 -6 107 -15 147 -21 39 -5 89 -10 110 -10 38 0 41 -2 150 -147 61 -82
155 -199 209 -261 55 -63 103 -119 108 -126 6 -9 -8 -28 -45 -63 -317 -298
-648 -473 -844 -449 -65 9 -147 49 -181 89 -80 94 -116 236 -116 457 0 162 9
253 43 430 27 144 37 172 57 166 10 -3 78 -16 152 -30z m2388 -22 c51 -203 80
-502 64 -664 -26 -256 -113 -388 -276 -422 -106 -23 -287 30 -458 134 -111 66
-285 199 -383 291 l-80 75 46 49 c86 90 296 352 386 482 2 2 56 10 120 17 131
15 395 57 488 78 33 7 65 12 70 11 6 -1 16 -24 23 -51z m-998 -77 c0 -18 -280
-349 -291 -345 -19 8 -289 333 -289 349 0 2 131 4 290 4 160 0 290 -4 290 -8z"/>
<path d="M2447 3005 c-176 -48 -306 -194 -337 -376 -22 -131 28 -284 125 -383
155 -156 398 -181 582 -59 102 67 171 176 194 304 40 227 -109 454 -336 514
-71 18 -162 18 -228 0z"/>
</g>
</svg>
